<?xml version="1.0" encoding="UTF-8" standalone="no"?>
<svg
   width="24"
   height="24"
   viewBox="0 0 24 24"
   fill="none"
   stroke="currentColor"
   stroke-width="2"
   stroke-linecap="round"
   stroke-linejoin="round"
   class="feather feather-package"
   version="1.1"
   id="svg94"
   sodipodi:docname="logo_devel.svg"
   inkscape:version="1.2.2 (b0a8486541, 2022-12-01)"
   xmlns:inkscape="http://www.inkscape.org/namespaces/inkscape"
   xmlns:sodipodi="http://sodipodi.sourceforge.net/DTD/sodipodi-0.dtd"
   xmlns="http://www.w3.org/2000/svg"
   xmlns:svg="http://www.w3.org/2000/svg">
  <defs
     id="defs98" />
  <sodipodi:namedview
     id="namedview96"
     pagecolor="#505050"
     bordercolor="#ffffff"
     borderopacity="1"
     inkscape:showpageshadow="0"
     inkscape:pageopacity="0"
     inkscape:pagecheckerboard="1"
     inkscape:deskcolor="#505050"
     showgrid="false"
     inkscape:zoom="33.708333"
     inkscape:cx="9.315204"
     inkscape:cy="10.398022"
     inkscape:window-width="1920"
     inkscape:window-height="1018"
     inkscape:window-x="0"
     inkscape:window-y="0"
     inkscape:window-maximized="1"
     inkscape:current-layer="svg94" />
  <g
     id="g2322"
     transform="translate(-0.18803597,2.3299417)">
    <circle
       style="fill:#0366d6;fill-opacity:1;stroke-width:0;stroke-dasharray:none"
       id="path1097"
       cx="12.413857"
       cy="11.984425"
       r="3.5186205" />
    <g
       id="g262"
       transform="matrix(0.20128388,0,0,0.20128388,9.998451,9.5606993)"
       style="fill:#ffffff">
      <line
         x1="16.5"
         y1="9.3999996"
         x2="7.5"
         y2="4.21"
         id="line86"
         style="fill:#ffffff" />
      <path
         d="M 21,16 V 8 A 2,2 0 0 0 20,6.27 l -7,-4 a 2,2 0 0 0 -2,0 l -7,4 A 2,2 0 0 0 3,8 v 8 a 2,2 0 0 0 1,1.73 l 7,4 a 2,2 0 0 0 2,0 l 7,-4 A 2,2 0 0 0 21,16 Z"
         id="path88"
         style="fill:#ffffff" />
      <polyline
         points="3.27 6.96 12 12.01 20.73 6.96"
         id="polyline90"
         style="fill:#ffffff" />
      <line
         x1="12"
         y1="22.08"
         x2="12"
         y2="12"
         id="line92"
         style="fill:#ffffff" />
    </g>
  </g>
  <circle
     style="fill:#0366d6;fill-opacity:1;stroke-width:0;stroke-dasharray:none"
     id="path1097-6"
     cx="4.1179571"
     cy="4.3046713"
     r="3.5186205" />
  <g
     id="g2465"
     transform="translate(-0.1955503,-0.10296276)">
    <line
       x1="12.093334"
       y1="4.1426024"
       x2="10.281779"
       y2="3.0979393"
       id="line86-5"
       style="fill:#ffffff;stroke-width:0.402568" />
    <path
       d="M 12.999112,5.4710762 V 3.8608051 A 0.40256776,0.40256776 0 0 0 12.797828,3.512584 L 11.388841,2.7074485 a 0.40256776,0.40256776 0 0 0 -0.402568,0 L 9.5772858,3.512584 A 0.40256776,0.40256776 0 0 0 9.3760019,3.8608051 v 1.6102711 a 0.40256776,0.40256776 0 0 0 0.2012839,0.3482212 l 1.4089872,0.805135 a 0.40256776,0.40256776 0 0 0 0.402568,0 l 1.408987,-0.805135 a 0.40256776,0.40256776 0 0 0 0.201284,-0.3482212 z"
       id="path88-3"
       style="fill:#ffffff;stroke-width:0.402568" />
    <polyline
       points="3.27 6.96 12 12.01 20.73 6.96"
       id="polyline90-5"
       style="fill:#ffffff"
       transform="matrix(0.20128388,0,0,0.20128388,8.7721503,2.2505341)" />
    <line
       x1="11.187556"
       y1="6.6948819"
       x2="11.187556"
       y2="4.6659408"
       id="line92-6"
       style="fill:#ffffff;stroke-width:0.402568" />
  </g>
  <line
     x1="22.325211"
     y1="5.5574846"
     x2="20.513655"
     y2="4.5128212"
     id="line86-5-2"
     style="fill:#ffffff;stroke-width:0.402568" />
  <path
     d="M 17.954177,5.3351351 V 3.724864 A 0.40256776,0.40256776 0 0 0 17.752893,3.3766429 L 16.343905,2.5715074 a 0.40256776,0.40256776 0 0 0 -0.402567,0 L 14.532351,3.3766429 A 0.40256776,0.40256776 0 0 0 14.331067,3.724864 v 1.6102711 a 0.40256776,0.40256776 0 0 0 0.201284,0.3482212 l 1.408987,0.805135 a 0.40256776,0.40256776 0 0 0 0.402567,0 l 1.408988,-0.805135 a 0.40256776,0.40256776 0 0 0 0.201284,-0.3482212 z"
     id="path88-3-9"
     style="fill:#ffffff;stroke-width:0.402568" />
  <polyline
     points="3.27 6.96 12 12.01 20.73 6.96"
     id="polyline90-5-1"
     style="fill:#ffffff"
     transform="matrix(0.20128388,0,0,0.20128388,18.643036,1.2742888)" />
  <line
     x1="19.539534"
     y1="5.9860597"
     x2="19.539534"
     y2="3.9571183"
     id="line92-6-2"
     style="fill:#ffffff;stroke-width:0.402568" />
</svg>
