<?xml version="1.0" encoding="UTF-8" standalone="no"?>
<svg
   width="7.0372419"
   height="7.0372419"
   viewBox="0 0 7.0372419 7.0372419"
   fill="none"
   stroke="currentColor"
   stroke-width="2"
   stroke-linecap="round"
   stroke-linejoin="round"
   class="feather feather-package"
   version="1.1"
   id="svg94"
   xmlns="http://www.w3.org/2000/svg"
   xmlns:svg="http://www.w3.org/2000/svg">
  <defs
     id="defs98" />
  <g
     id="g2322"
     transform="translate(-8.8952366,-8.4658032)">
    <circle
       style="fill:#0366d6;fill-opacity:1;stroke-width:0;stroke-dasharray:none"
       id="path1097"
       cx="12.413857"
       cy="11.984425"
       r="3.5186205" />
    <g
       id="g262"
       transform="matrix(0.20128388,0,0,0.20128388,9.998451,9.5606993)"
       style="fill:#ffffff">
      <line
         x1="16.5"
         y1="9.3999996"
         x2="7.5"
         y2="4.21"
         id="line86"
         style="fill:#ffffff" />
      <path
         d="M 21,16 V 8 A 2,2 0 0 0 20,6.27 l -7,-4 a 2,2 0 0 0 -2,0 l -7,4 A 2,2 0 0 0 3,8 v 8 a 2,2 0 0 0 1,1.73 l 7,4 a 2,2 0 0 0 2,0 l 7,-4 A 2,2 0 0 0 21,16 Z"
         id="path88"
         style="fill:#ffffff" />
      <polyline
         points="3.27 6.96 12 12.01 20.73 6.96"
         id="polyline90"
         style="fill:#ffffff" />
      <line
         x1="12"
         y1="22.08"
         x2="12"
         y2="12"
         id="line92"
         style="fill:#ffffff" />
    </g>
  </g>
</svg>
